<?xml version="1.0" encoding="iso-8859-1"?>
<!-- Generator: Adobe Illustrator 19.0.0, SVG Export Plug-In . SVG Version: 6.00 Build 0)  -->
<svg version="1.1" id="Capa_1" xmlns="http://www.w3.org/2000/svg" xmlns:xlink="http://www.w3.org/1999/xlink" x="0px" y="0px"
	 viewBox="0 0 512 512" style="enable-background:new 0 0 512 512;" xml:space="preserve">
<g>
	<g>
		<path d="M504.501,414.694h-24.928v-45.681c0-4.142-3.358-7.499-7.499-7.499h-10.126l-7.19-147.753h17.317
			c4.142,0,7.499-3.358,7.499-7.499v-53.18c0-0.053-0.007-0.105-0.008-0.157c-0.003-0.166-0.011-0.331-0.025-0.495
			c-0.008-0.088-0.018-0.175-0.028-0.262c-0.018-0.143-0.039-0.285-0.065-0.427c-0.018-0.097-0.035-0.194-0.057-0.29
			c-0.028-0.126-0.062-0.251-0.097-0.376c-0.028-0.102-0.054-0.204-0.087-0.303c-0.038-0.118-0.084-0.233-0.128-0.349
			c-0.044-0.115-0.086-0.23-0.135-0.343c-0.079-0.181-0.164-0.359-0.257-0.533c-0.046-0.086-0.098-0.167-0.147-0.251
			c-0.067-0.115-0.134-0.229-0.207-0.34c-0.052-0.078-0.108-0.153-0.162-0.229c-0.08-0.112-0.161-0.223-0.247-0.331
			c-0.055-0.069-0.113-0.136-0.171-0.203c-0.094-0.109-0.19-0.215-0.29-0.319c-0.059-0.061-0.119-0.121-0.18-0.18
			c-0.105-0.102-0.213-0.199-0.325-0.295c-0.065-0.055-0.129-0.111-0.195-0.164c-0.111-0.089-0.226-0.173-0.343-0.257
			c-0.074-0.053-0.147-0.107-0.223-0.157c-0.108-0.072-0.222-0.137-0.335-0.203c-0.09-0.053-0.178-0.108-0.271-0.158
			c-0.094-0.05-0.193-0.093-0.289-0.139c-0.116-0.056-0.23-0.114-0.35-0.164L263.498,57.984V36.626c0-4.142-3.358-7.499-7.499-7.499
			s-7.499,3.358-7.499,7.499v21.358L37.046,146.157c-0.119,0.05-0.234,0.108-0.35,0.164c-0.097,0.046-0.195,0.089-0.29,0.139
			c-0.092,0.049-0.181,0.105-0.271,0.158c-0.113,0.066-0.226,0.132-0.335,0.203c-0.076,0.05-0.149,0.104-0.223,0.157
			c-0.117,0.083-0.232,0.167-0.343,0.257c-0.066,0.053-0.13,0.109-0.195,0.164c-0.111,0.096-0.22,0.193-0.325,0.295
			c-0.061,0.059-0.121,0.119-0.18,0.18c-0.1,0.104-0.196,0.21-0.29,0.319c-0.058,0.067-0.115,0.134-0.171,0.203
			c-0.086,0.108-0.167,0.218-0.247,0.331c-0.055,0.076-0.111,0.151-0.162,0.229c-0.073,0.111-0.14,0.226-0.207,0.34
			c-0.049,0.084-0.101,0.165-0.147,0.251c-0.093,0.174-0.178,0.352-0.257,0.533c-0.049,0.112-0.091,0.228-0.135,0.343
			c-0.044,0.116-0.089,0.231-0.128,0.349c-0.032,0.1-0.059,0.202-0.087,0.303c-0.035,0.125-0.068,0.249-0.097,0.376
			c-0.021,0.096-0.039,0.193-0.057,0.29c-0.026,0.141-0.048,0.283-0.065,0.427c-0.011,0.087-0.021,0.174-0.028,0.262
			c-0.014,0.164-0.022,0.329-0.025,0.495c-0.001,0.053-0.008,0.104-0.008,0.157v53.18c0,4.142,3.358,7.499,7.499,7.499h17.316
			l-7.189,147.753H39.927c-4.142,0-7.499,3.358-7.499,7.499v45.681H7.499c-4.142,0-7.499,3.358-7.499,7.499v53.181
			c0,4.142,3.358,7.499,7.499,7.499h97.908c4.142,0,7.499-3.358,7.499-7.499s-3.358-7.499-7.499-7.499H14.999v-38.182h24.928
			h299.349c4.142,0,7.499-3.358,7.499-7.499s-3.358-7.499-7.499-7.499H47.426v-38.182h9.77h51.328h35.242h51.328h35.242h51.328
			h35.242h51.328h35.241h51.329h9.77v38.182h-95.3c-4.142,0-7.499,3.358-7.499,7.499s3.358,7.499,7.499,7.499h102.8h24.928v38.182
			H135.405c-4.142,0-7.499,3.358-7.499,7.499s3.358,7.499,7.499,7.499h369.095c4.142,0,7.499-3.358,7.499-7.499v-53.181
			C512,418.051,508.642,414.694,504.501,414.694z M47.426,198.762v-38.181h91.854c4.142,0,7.499-3.358,7.499-7.499
			s-3.358-7.499-7.499-7.499H77.398L256,71.108l178.603,74.474H169.278c-4.142,0-7.499,3.358-7.499,7.499s3.358,7.499,7.499,7.499
			h295.295v38.181h-17.69h-35.488h-51.082h-35.488h-51.082h-35.488h-51.082h-35.488h-51.082H65.116H47.426z M65.07,361.514
			l7.189-147.753h21.201l7.189,147.753H65.07z M136.622,361.514h-20.955l-7.189-147.753h35.335L136.622,361.514z M151.639,361.514
			l7.19-147.753h21.201l7.19,147.753H151.639z M223.192,361.514h-20.955l-7.19-147.753h35.336L223.192,361.514z M238.21,361.514
			l7.19-147.753h21.201l7.19,147.753H238.21z M309.762,361.514h-20.955l-7.19-147.753h35.336L309.762,361.514z M324.779,361.514
			l7.19-147.753h21.201l7.19,147.753H324.779z M396.332,361.514h-20.954l-7.19-147.753h35.335L396.332,361.514z M411.349,361.514
			l7.19-147.753h21.201l7.19,147.753H411.349z" fill="#ffc900"/>
	</g>
</g>
<g>
</g>
<g>
</g>
<g>
</g>
<g>
</g>
<g>
</g>
<g>
</g>
<g>
</g>
<g>
</g>
<g>
</g>
<g>
</g>
<g>
</g>
<g>
</g>
<g>
</g>
<g>
</g>
<g>
</g>
</svg>
